<?xml version="1.0" encoding="utf-8"?>
<svg viewBox="0 0 900 600" xmlns="http://www.w3.org/2000/svg">
  <rect x="0" y="0" width="900" height="600" fill="#FFFFFF"/>
  <g transform="matrix(2.115255, 0, 0, 1, 900.000027, 600.000018)" style="">
    <path d="M -426.68 0.81 C -443.121 -331.16 -331.792 -195.952 -298.41 -168.104 C -265.028 -140.256 -226.159 -56.916 -204.091 -95.376 C -169.736 -155.251 -130.938 -181.251 -86.938 -196.951 C -43.038 -212.651 -45.3 -346 0 -351.5 L 0 0 L -426.68 0.81 Z" fill="#de8c47" style="stroke-linecap: round;"/>
  </g>
  <g transform="matrix(1.230206, 0.008075, 0, 0.650088, 0, -4.849679)" style="">
    <path d="M 489.628 1.403 C 474.869 133.267 457.458 123.662 401.758 128.984 C 346.058 134.306 299.888 219.943 260.682 274.235 C 230.154 316.511 135.375 258.084 95.536 269.597 C 46.98 283.629 38.569 405.972 -2.631 428.672 L 0 0 L 489.628 1.403 Z" style="stroke-linecap: round; fill-rule: nonzero; fill: rgb(222, 139, 71);"/>
  </g>
  <g transform="matrix(1, 0, 0, 1, 489.403701, 333.263621)">
    <path d="M 215.653 -84.146 C 227.706 -38.192 240.673 -20.916 241.573 25.984 C 242.573 72.884 172.403 83.563 146.594 117.681 C 120.785 151.799 59.129 203.694 7.329 207.794 C -44.571 211.794 -122.926 177.149 -181.938 154.719 C -240.95 132.289 -307.493 127.199 -254.291 3.873 C -230.747 -50.704 -324.579 -77.513 -289.439 -138.924 C -262.947 -185.222 -178.448 -173.862 -112.289 -217.872 C -43.373 -263.717 41.061 -280.773 77.462 -260.782 C 150.069 -220.907 176.333 -229.81 194.58 -177.503" style="fill: rgba(209, 46, 108, 0.67); paint-order: fill;"/>
  </g>
</svg>